<?xml version="1.0" encoding="utf-8"?>
<!-- Generator: Adobe Illustrator 19.0.0, SVG Export Plug-In . SVG Version: 6.00 Build 0)  -->
<svg version="1.1" id="Layer_1" focusable="false" xmlns="http://www.w3.org/2000/svg" xmlns:xlink="http://www.w3.org/1999/xlink"
	 x="0px" y="0px" viewBox="-196 339.5 448 512" style="enable-background:new -196 339.5 448 512;" xml:space="preserve">
<g>
	<path d="M160.8,501c0,16.3,0,32.6,0,49.1c-27.4,0-54.5,0-82,0c0-16.4,0-32.7,0-49.1C106.2,501,133.5,501,160.8,501z"/>
	<path d="M-12.5,690.1c0-14.8,0-29.7,0-44.6c27.3,0,54.5,0,82,0c0,14.9,0,29.8,0,44.6C42.1,690.1,14.8,690.1-12.5,690.1z"/>
	<path d="M-195.8,645.3c27.4,0,54.7,0,82.3,0c0,12.4,0,24.7,0,37.2c-27.4,0-54.9,0-82.3,0C-195.8,670.1-195.8,657.7-195.8,645.3z"/>
	<path d="M252.2,629.1c-5.7,0-11.3-0.1-17,0c-2,0-3.2-0.5-4.2-2.4c-2.5-4.9-5.4-9.6-8-14.5c-0.7-1.2-1.4-1.7-2.8-1.6
		c-3,0.1-5.9,0-9.2,0c0,6.1,0,12.1,0,18.2c-5.8,0-11.3,0-16.9,0c0-20.8,0-41.6,0-62.5c0.6,0,1.3-0.1,1.9-0.1c9.6,0,19.3-0.1,28.9,0
		c6,0.1,11.9,1.2,16.9,4.7c4.6,3.2,7,7.7,7.6,13.1c1,9.5-1.2,17.8-10.5,23.1c1.9,3.1,3.7,6,5.5,8.9c2.5,4,5.1,8,7.7,11.9
		C252.2,628.6,252.2,628.9,252.2,629.1z M211.1,580.3c0,5.6,0,11.1,0,16.5c5.5,0,11,0.4,16.3-0.1c4.5-0.4,6.2-3.9,6-9.4
		c-0.2-3.7-2.8-6.6-6.7-6.9C221.6,580.1,216.5,580.3,211.1,580.3z"/>
	<path d="M-195.8,622c1.3-3.8,2.7-7.6,4-11.4c0.4-1,0.7-2.1,1.1-3.2c6.4,5.5,13.7,8.2,22,7.8c1.5-0.1,3.1-0.3,4.6-0.8
		c3.4-1.1,4.2-4.6,1.2-6.7c-2.1-1.5-4.8-2.3-7.3-3.2c-4.3-1.5-8.8-2.4-12.9-4.2c-8.2-3.6-11.3-9-10.4-18.2
		c0.6-6.6,4.3-12.2,12.7-14.8c9.5-2.9,18.8-2.6,27.7,2.1c3.9,2.1,7,4.9,9.1,9.2c-4.4,2.8-8.7,5.5-13,8.3c-0.7-0.8-1.3-1.5-1.9-2.2
		c-3.7-4.1-8.4-5.2-13.6-4.3c-1.2,0.2-2.7,1.5-3.2,2.6c-0.8,1.8,0.4,3.5,2.1,4.2c2.9,1.3,6,2.2,8.9,3.3c4.3,1.6,8.8,2.8,12.8,4.9
		c6.5,3.4,8.9,9.3,8.3,16.5c-0.5,6.7-3.7,11.7-9.9,14.5c-7.5,3.4-15.4,3.6-23.4,2.9c-6.8-0.6-13.1-3.1-19-6.5
		C-195.8,622.6-195.8,622.3-195.8,622z"/>
	<path d="M252.2,550.3c-26.4,0-52.8,0-79.2,0c-0.9,0-1.8,0-2.8,0c0-6.6,0-13,0-19.7c27.3,0,54.7,0,82,0
		C252.2,537.2,252.2,543.7,252.2,550.3z"/>
	<path d="M252.2,660.1c-24.5,0-49.1,0-73.6-0.1c-2.7,0-5.5,0-8.4,0c0-4.9,0-9.7,0-14.7c27.3,0,54.7,0,82,0
		C252.2,650.2,252.2,655.1,252.2,660.1z"/>
	<path d="M-195.8,536.9c27.4,0,54.7,0,82.3,0c0,4.5,0,8.8,0,13.4c-27.4,0-54.9,0-82.3,0C-195.8,545.8-195.8,541.3-195.8,536.9z"/>
	<path d="M-103.8,550.1c0-12.7,0-25.2,0-37.9c27.3,0,54.4,0,81.7,0c0,12.5,0,25.1,0,37.9C-49.3,550.1-76.5,550.1-103.8,550.1z"/>
	<path d="M127.1,629.1c-5.6,0-11,0-16.7,0c0-8,0-15.9,0-24c-8.1,0-16,0-24.1,0c0,7.9,0,15.8,0,23.9c-5.8,0-11.3,0-17,0
		c0-20.7,0-41.5,0-62.4c5.6,0,11.1,0,17,0c0,8.3,0,16.6,0,24.9c8.1,0,15.9,0,24,0c0-8.3,0-16.6,0-24.9c5.7,0,11.2,0,16.9,0
		C127.1,587.3,127.1,608.1,127.1,629.1z"/>
	<path d="M-103.8,672c0-8.9,0-17.7,0-26.6c27.2,0,54.4,0,81.7,0c0,8.8,0,17.6,0,26.6C-49.3,672-76.5,672-103.8,672z"/>
	<path d="M160.7,645.5c0,8.9,0,17.7,0,26.5c-27.3,0-54.5,0-81.8,0c0-8.8,0-17.6,0-26.5C106.2,645.5,133.4,645.5,160.7,645.5z"/>
	<path d="M185.8,566.6c0,4.5,0,8.8,0,13.4c-10.8,0-21.5,0-32.4,0c0,3.8,0,7.3,0,11.1c6.5,0,12.8,0,19.4,0c0,4.4,0,8.5,0,12.9
		c-6.4,0-12.8,0-19.4,0c0,3.9,0,7.5,0,11.4c10.7,0,21.4,0,32.3,0c0,4.6,0,9,0,13.5c-16.4,0-32.8,0-49.4,0c0-20.8,0-41.5,0-62.4
		C152.7,566.6,169.2,566.6,185.8,566.6z"/>
	<path d="M69.3,525.8c0,8.2,0,16.2,0,24.3c-27.3,0-54.5,0-81.8,0c0-8.1,0-16.1,0-24.3C14.8,525.8,42,525.8,69.3,525.8z"/>
	<path d="M62.8,578.9c-4.5,2.8-8.8,5.5-13.1,8.3c-2.4-3.4-5.5-5.9-9.5-6.5c-9.6-1.5-18.1,1.8-19.1,13.5c-0.4,4.5-0.2,8.8,1.6,12.9
		c4.6,10,18.4,11.4,26.1,2.7c0.3-0.4,0.6-0.8,1-1.3c4.4,2.7,8.7,5.3,13.1,8c-2.2,5-6,8.2-10.7,10.4c-7,3.2-14.4,3.3-21.9,2.4
		c-6.9-0.8-13.2-3-18.2-8c-7.2-7.1-8.7-16.1-8.4-25.7c0.2-7.9,2.7-15,8.4-20.8c4.5-4.5,9.9-7,16.1-8.1c8.3-1.4,16.5-1.4,24.3,2
		C57,570.7,60.7,573.8,62.8,578.9z"/>
	<path d="M-104.8,580.3c0,16.4,0,32.5,0,48.7c-5.7,0-11.2,0-17,0c0-16.1,0-32.2,0-48.5c-6.2,0-12.1,0-18.2,0c0-4.7,0-9.2,0-13.9
		c17.7,0,35.5,0,53.4,0c0,4.4,0,8.9,0,13.7C-92.6,580.3-98.6,580.3-104.8,580.3z"/>
	<path d="M-16.1,629.1c-5.9,0-11.3,0-17,0c0-16.2,0-32.2,0-48.6c-6.2,0-12.2,0-18.3,0c0-4.8,0-9.3,0-13.9c17.8,0,35.6,0,53.5,0
		c0,4.6,0,9.1,0,13.8c-6,0-12,0-18.2,0C-16.1,596.6-16.1,612.7-16.1,629.1z"/>
	<path d="M-77.3,566.5c5.6,0,11.1,0,16.7,0c0,20.9,0,41.6,0,62.5c-5.6,0-11.1,0-16.7,0C-77.3,608.3-77.3,587.5-77.3,566.5z"/>
</g>
</svg>
